<svg aria-hidden="true" style="position: absolute; width: 0; height: 0; overflow: hidden;" version="1.1" xmlns="http://www.w3.org/2000/svg" xmlns:xlink="http://www.w3.org/1999/xlink">
<defs>
<!-- BURGER-MENU ICON -->
<symbol id="icon-burger" viewBox="0 0 32 32">
<path d="M5.333 8h21.333v2.667h-21.333zM5.333 14.667h21.333v2.667h-21.333zM5.333 21.333h21.333v2.667h-21.333z"></path>
</symbol>
<!-- LOGO ICON -->
<symbol id="icon-logo" viewBox="0 0 75 32">
<path d="M31.857 8.796c-0.257-2.557-2.398-4.536-5.001-4.536-2.775 0-5.025 2.25-5.025 5.025 0 0.172 0.009 0.342 0.026 0.51l-0.002-0.021c0.257 2.557 2.398 4.536 5.001 4.536 2.775 0 5.025-2.25 5.025-5.025 0-0.172-0.009-0.342-0.026-0.51l0.002 0.021zM28.111 5.444c0.061 0 0.107 0.012 0.164 0.028l0.012 0.004c0.022 0.112 0 0.164-0.059 0.26-0.102 0.166-0.217 0.326-0.331 0.486-0.202 0.282-0.403 0.564-0.541 0.885-0.299 0.697-0.229 1.509-0.158 2.331 0.061 0.719 0.124 1.444-0.060 2.104-0.222 0.794-0.778 1.313-1.474 1.7-0.020 0.003-0.044 0.004-0.067 0.004-0.028 0-0.056-0.002-0.083-0.006l0.003 0h-0.016l-0.007-0.013c-0.039-0.076-0.042-0.080-0.013-0.166 0.037-0.111 0.112-0.225 0.181-0.332q0.041-0.061 0.076-0.12c0.242-0.403 0.479-0.838 0.554-1.309 0.092-0.588 0.043-1.193-0.006-1.797-0.062-0.767-0.125-1.535 0.102-2.268 0.28-0.9 0.935-1.369 1.724-1.788zM43.689 23.396c-0.294-2.45-2.36-4.33-4.865-4.33-2.705 0-4.898 2.193-4.898 4.898 0 0.2 0.012 0.398 0.035 0.591l-0.002-0.023c0.294 2.45 2.36 4.33 4.865 4.33 2.705 0 4.898-2.193 4.898-4.898 0-0.2-0.012-0.398-0.035-0.591l0.002 0.023zM38.265 20.224c0.65-0.048 1.258 0.11 1.782 0.5 0.848 0.631 1.281 1.674 1.425 2.693 0.151 1.078 0.136 2.573-0.565 3.476-0.382 0.492-0.867 0.692-1.467 0.764-0.076 0.008-0.165 0.012-0.254 0.012-0.58 0-1.116-0.185-1.554-0.499l0.008 0.005c-0.825-0.596-1.248-1.573-1.402-2.553-0.175-1.116-0.169-2.678 0.555-3.62 0.385-0.5 0.865-0.7 1.472-0.778zM15.783 0.245c0.871-0.115 1.858-0.025 2.706 0.188 0.516 0.131 1.031 0.308 1.557 0.382 0.304 0.042 0.622 0.038 0.928 0.044 0.049 0.848 0.213 2.883 0.116 3.63-0.157 0.030-0.277 0.021-0.434 0-0.161-0.187-0.236-0.603-0.333-0.844-0.364-0.88-1.052-1.565-1.911-1.916l-0.023-0.008c-1.102-0.452-2.418-0.394-3.502 0.076-1.14 0.492-2.069 1.478-2.523 2.633-0.701 1.788-0.696 4.083 0.091 5.843 0.546 1.22 1.516 2.293 2.784 2.769 1.212 0.455 2.528 0.32 3.689-0.212 0.518-0.264 0.997-0.658 1.305-1.156 0.175-0.282 0.302-0.818 0.58-0.999l0.077 0.030c0.297 0.375 0.408 1.55 0.505 2.055-1.118 0.986-2.468 1.639-3.95 1.835-1.941 0.255-3.967-0.137-5.535-1.348-1.428-1.102-2.295-2.833-2.51-4.607-0.249-2.061 0.206-4.142 1.511-5.782 1.203-1.512 2.972-2.397 4.874-2.614zM52.236 5.141c-0.52-0.129-1.148-0.199-1.682-0.133-1.243 0.123-2.306 0.602-3.114 1.577-0.752 0.912-1.208 2.093-1.208 3.38 0 0.183 0.009 0.364 0.027 0.542l-0.002-0.022c0.124 1.198 0.676 2.389 1.63 3.147 1.004 0.796 2.422 1.021 3.668 0.874 1.106-0.131 2.086-0.609 2.772-1.502 0.314-0.407 0.542-0.868 0.722-1.348l-0.066-0.064c-0.107-0.105-0.216-0.212-0.358-0.255l-0.033 0.014c-0.042 0.014-0.076 0.042-0.096 0.079l-0 0.001c-0.592 0.871-1.269 1.447-2.329 1.645-0.825 0.155-1.644 0.012-2.338-0.474-0.547-0.398-0.972-0.933-1.231-1.554l-0.009-0.024c1.267-0.751 2.643-1.511 4.1-1.809 0.288-0.060 0.582-0.092 0.876-0.125 0.308-0.036 0.615-0.069 0.914-0.133 0.2-0.044 0.344-0.084 0.412-0.297 0.171-0.533-0.098-1.403-0.367-1.861-0.491-0.84-1.352-1.423-2.287-1.656zM50.947 5.988c0.237 0.002 0.491 0.018 0.719 0.082 0.385 0.107 0.734 0.334 0.923 0.696 0.131 0.25 0.232 0.651 0.13 0.924-0.086 0.229-0.272 0.386-0.477 0.507-0.256 0.151-0.564 0.249-0.86 0.343-0.718 0.225-1.318 0.465-1.896 0.744l0.083-0.036c-0.113 0.050-0.255 0.14-0.407 0.236-0.284 0.18-0.602 0.38-0.817 0.377-0.116-0.096-0.144-0.176-0.156-0.32-0.080-0.958 0.306-2.047 0.925-2.772 0.453-0.53 1.166-0.726 1.835-0.78zM61.547 5.050c-0.231-0.033-0.497-0.052-0.768-0.052-0.121 0-0.24 0.004-0.359 0.011l0.016-0.001c-1.261 0.103-2.328 0.564-3.153 1.545-0.768 0.915-1.235 2.106-1.235 3.406 0 0.175 0.008 0.348 0.025 0.519l-0.002-0.022c0.111 1.169 0.658 2.364 1.577 3.114 0.991 0.808 2.469 1.084 3.716 0.942 1.111-0.124 2.108-0.646 2.8-1.527 0.32-0.409 0.569-0.868 0.74-1.357l-0.068-0.060c-0.116-0.106-0.252-0.229-0.396-0.241-0.594 0.894-1.305 1.524-2.382 1.74-0.812 0.164-1.6 0.044-2.297-0.418-0.598-0.397-1.034-0.975-1.344-1.616 1.369-0.932 3.053-1.644 4.681-1.946 0.202-0.037 0.407-0.053 0.612-0.069 0.17-0.012 0.34-0.027 0.507-0.052 0.22-0.033 0.441-0.083 0.49-0.332 0.138-0.704-0.14-1.552-0.556-2.118-0.628-0.854-1.567-1.323-2.603-1.467zM60.346 6.023c0.424-0.034 0.837-0.054 1.246 0.095 0.393 0.143 0.708 0.427 0.879 0.809 0.113 0.253 0.162 0.536 0.055 0.798-0.066 0.154-0.169 0.282-0.298 0.376l-0.003 0.002c-0.308 0.226-1.070 0.492-1.733 0.723-0.326 0.114-0.628 0.22-0.84 0.308-0.34 0.151-0.669 0.336-0.996 0.519q-0.272 0.155-0.547 0.3c-0.154-0.938-0.057-1.894 0.453-2.716 0.422-0.679 1.017-1.038 1.783-1.213zM28.907 16.304c1.004-0.005 3.825-0.131 4.586 0.070 0.063 0.087 0.058 0.089 0.050 0.197-0.176 0.297-0.551 0.415-0.812 0.628-0.151 0.123-0.286 0.297-0.332 0.489-0.168 0.708-0.101 1.528-0.102 2.256l-0.020 3.074c-0.005 0.733 0.018 1.483-0.068 2.212-0.124 1.043-0.584 2.012-1.427 2.661-1.050 0.81-2.516 0.99-3.8 0.816-1.124-0.152-2.222-0.639-2.921-1.562-0.634-0.837-0.795-1.815-0.66-2.838 0.036-0.18 0.081-0.356 0.146-0.528 0.24-0.638 0.708-1.162 1.339-1.433 0.667-0.286 1.508-0.307 2.178-0.018 0.326 0.14 0.532 0.381 0.652 0.715 0.073 0.204 0.098 0.379 0.004 0.578-0.27 0.255-0.878-0.087-1.256 0.018-0.348 0.098-0.615 0.342-0.782 0.659-0.289 0.55-0.296 1.268-0.089 1.846 0.185 0.516 0.603 0.931 1.095 1.159 0.585 0.27 1.407 0.338 2.018 0.11 0.474-0.176 0.821-0.552 1.012-1.014 0.164-0.398 0.242-0.856 0.28-1.284 0.088-0.963 0.196-6.777-0.016-7.406-0.224-0.663-0.987-0.683-1.162-1.086 0-0.098 0.003-0.165 0.050-0.251zM49.651 27.076c0.428-1.060 0.798-2.151 1.193-3.225 0.308-0.836 0.687-1.7 0.876-2.571 0.040-0.185 0.058-0.369 0.005-0.554-0.158-0.564-0.887-0.519-1.052-0.956 0.023-0.096 0.009-0.138 0.101-0.196 0.169-0.108 3.143-0.12 3.508-0.074 0.121 0.016 0.207 0.043 0.287 0.14 0.009 0.21-0.043 0.305-0.231 0.412-0.302 0.171-0.687 0.258-0.915 0.539-0.356 0.443-1.702 4.23-2.034 5.091l-1.109 2.878c-0.279 0.723-0.54 1.508-0.956 2.165-0.252 0.398-0.59 0.783-1.001 1.020-0.6 0.344-1.36 0.408-2.022 0.221-0.516-0.145-0.987-0.464-1.233-0.949-0.196-0.384-0.243-0.894-0.1-1.303 0.107-0.305 0.354-0.557 0.648-0.689 0.19-0.084 0.502-0.158 0.699-0.052 0.468 0.255 0.164 1.097 0.343 1.547 0.061 0.15 0.149 0.257 0.304 0.318 0.251 0.101 0.685-0.036 0.911-0.147 0.764-0.373 1.084-1.573 1.339-2.315-0.32 0.006-0.692 0.045-1.007-0.010-0.058-0.009-0.11-0.025-0.158-0.049l0.003 0.001c-0.105-0.060-0.172-0.171-0.226-0.276-0.249-0.486-0.418-1.051-0.613-1.563l-1.212-3.191c-0.238-0.627-0.455-1.28-0.748-1.884-0.219-0.449-0.51-0.908-0.96-1.157-0.222-0.123-0.516-0.121-0.667-0.344-0.026-0.153 0.002-0.245 0.049-0.391 0.804-0.032 4.036-0.116 4.631 0.049 0.016 0.054 0.026 0.116 0.026 0.18 0 0.072-0.012 0.142-0.034 0.207l0.001-0.005c-0.071 0.176-0.412 0.231-0.569 0.293-0.17 0.068-0.316 0.171-0.382 0.349-0.072 0.196 0.024 0.512 0.080 0.711 0.246 0.872 0.644 1.735 0.971 2.583 0.409 1.060 0.777 2.16 1.253 3.191zM43.961 1.036c0.714-0.037 1.391 0.053 2.014 0.428 0.455 0.273 0.841 0.683 0.956 1.214 0.062 0.288 0.044 0.593-0.124 0.844-0.181 0.271-0.549 0.484-0.873 0.524-0.194 0.024-0.422-0.003-0.578-0.129-0.361-0.292-0.192-0.81-0.261-1.209-0.034-0.216-0.158-0.399-0.331-0.51l-0.003-0.002c-0.281-0.176-0.72-0.235-1.040-0.146-0.278 0.077-0.479 0.274-0.607 0.528-0.409 0.807-0.183 1.861 0.069 2.677 0.857 0.021 1.716 0.004 2.573 0.003 0.003 0.364-0.004 0.721-0.032 1.084-0.827-0.002-1.656-0.014-2.483 0.018-0.053 0.85-0.032 1.713-0.037 2.565-0.008 1.276-0.133 2.683 0.159 3.924 0.044 0.116 0.093 0.223 0.153 0.332 0.258 0.469 0.416 0.419 0.875 0.57 0.156 0.052 0.247 0.116 0.316 0.26 0 0.002 0 0.005 0 0.007 0 0.101-0.037 0.192-0.098 0.263l0-0c-0.041 0.027-0.058 0.041-0.11 0.051-0.166 0.032-4.158 0.014-4.384-0.023-0.156-0.027-0.265-0.060-0.362-0.192 0.064-0.377 0.484-0.35 0.735-0.594 0.289-0.279 0.435-0.653 0.516-1.040 0.174-0.842 0.107-1.796 0.103-2.654l-0.016-3.479-1.633-0.006c-0.033-0.359-0.036-0.722-0.044-1.083l1.626-0.001c-0.078-0.212-0.146-0.464-0.191-0.724l-0.004-0.026c-0.103-0.751 0.071-1.515 0.533-2.124 0.613-0.809 1.6-1.222 2.584-1.349z"></path>
<path d="M37.204 1.037c0.658-0.055 1.289-0.007 1.879 0.316 0.471 0.259 0.875 0.684 1.020 1.212 0.089 0.327 0.099 0.741-0.085 1.038-0.132 0.212-0.349 0.334-0.589 0.38-0.219 0.041-0.508 0.040-0.691-0.107-0.345-0.276-0.114-0.81-0.191-1.177-0.046-0.221-0.225-0.409-0.418-0.516-0.306-0.166-0.745-0.187-1.075-0.088-0.27 0.081-0.486 0.269-0.604 0.512l-0.003 0.006c-0.364 0.743-0.087 1.882 0.163 2.622 0.82 0.048 1.657 0.011 2.48 0.014 0.020 0.367 0.002 0.726-0.020 1.093q-1.252-0.004-2.505 0.009c-0.031 0.78-0.048 1.695-0.048 2.615 0 0.182 0.001 0.364 0.002 0.545l-0-0.028c-0.003 1.076-0.109 2.284 0.206 3.323 0.347 0.76 1.067 0.889 1.236 1.294-0.027 0.074-0.015 0.087-0.089 0.13-0.263 0.157-4.26 0.127-4.618 0.042-0.014-0.048-0.032-0.104-0.034-0.155-0.012-0.317 0.489-0.45 0.681-0.64 0.267-0.263 0.4-0.753 0.461-1.116 0.14-0.818 0.095-1.72 0.094-2.548l-0.007-3.464-1.628-0.007c-0.015-0.254-0.024-0.552-0.024-0.851 0-0.081 0.001-0.163 0.002-0.244l-0 0.012q0.779 0.009 1.558-0.002c-0.080-0.264-0.165-0.53-0.206-0.804-0.111-0.745 0.051-1.481 0.507-2.087 0.612-0.814 1.564-1.191 2.546-1.329z"></path>
</symbol>
</defs>
</svg>
